<mxfile><diagram id="-o0uTXzAZD-SjkgTRFpk" name="Page-1"><mxGraphModel dx="708" dy="529" grid="1" gridSize="10" guides="1" tooltips="1" connect="1" arrows="1" fold="1" page="1" pageScale="1" pageWidth="850" pageHeight="1100" math="0" shadow="0"><root><mxCell id="0"/><mxCell id="1" parent="0"/><mxCell id="5" value="" style="edgeStyle=none;html=1;" edge="1" parent="1" source="2" target="3"><mxGeometry relative="1" as="geometry"/></mxCell><mxCell id="2" value="intake 5 numbers:&lt;br&gt;input box" style="whiteSpace=wrap;html=1;" vertex="1" parent="1"><mxGeometry x="365" y="50" width="120" height="60" as="geometry"/></mxCell><mxCell id="11" value="" style="edgeStyle=none;html=1;" edge="1" parent="1" source="3" target="7"><mxGeometry relative="1" as="geometry"/></mxCell><mxCell id="3" value="put into list with an index size preset to [4] or alternativlely [0] * 5&amp;nbsp;&amp;nbsp;" style="whiteSpace=wrap;html=1;" vertex="1" parent="1"><mxGeometry x="328" y="140" width="195" height="60" as="geometry"/></mxCell><mxCell id="4" value="when the list is full, the max list size in the list named &quot;numbers&quot;" style="ellipse;whiteSpace=wrap;html=1;" vertex="1" parent="1"><mxGeometry x="180" y="60" width="110" height="80" as="geometry"/></mxCell><mxCell id="6" value="begin sorting and initialize them" style="text;html=1;align=center;verticalAlign=middle;resizable=0;points=[];autosize=1;strokeColor=none;fillColor=none;" vertex="1" parent="1"><mxGeometry x="100" y="200" width="190" height="30" as="geometry"/></mxCell><mxCell id="12" value="" style="edgeStyle=none;html=1;" edge="1" parent="1" source="7" target="8"><mxGeometry relative="1" as="geometry"/></mxCell><mxCell id="7" value="initialize i = 0 to go down the elements in the list for numbers[i]" style="whiteSpace=wrap;html=1;" vertex="1" parent="1"><mxGeometry x="370" y="240" width="120" height="60" as="geometry"/></mxCell><mxCell id="13" value="" style="edgeStyle=none;html=1;" edge="1" parent="1" source="8" target="9"><mxGeometry relative="1" as="geometry"/></mxCell><mxCell id="8" value="to determine minval, assume minval as numbers[0] to initialize the value so comparison can begin" style="whiteSpace=wrap;html=1;" vertex="1" parent="1"><mxGeometry x="290" y="330" width="270" height="60" as="geometry"/></mxCell><mxCell id="14" value="" style="edgeStyle=none;html=1;" edge="1" parent="1" source="9" target="10"><mxGeometry relative="1" as="geometry"/></mxCell><mxCell id="9" value="minval = numbers[0]" style="whiteSpace=wrap;html=1;" vertex="1" parent="1"><mxGeometry x="365" y="430" width="120" height="60" as="geometry"/></mxCell><mxCell id="16" value="" style="edgeStyle=none;html=1;" edge="1" parent="1" source="10" target="15"><mxGeometry relative="1" as="geometry"/></mxCell><mxCell id="10" value="comapre minval to numbers[i] and after each comparison, i += 1 so [i[ goes down through tht elements of the list of &quot;numbers&quot;" style="whiteSpace=wrap;html=1;" vertex="1" parent="1"><mxGeometry x="315" y="530" width="220" height="60" as="geometry"/></mxCell><mxCell id="19" value="" style="edgeStyle=none;html=1;" edge="1" parent="1" source="15" target="17"><mxGeometry relative="1" as="geometry"/></mxCell><mxCell id="15" value="comparison for loop:&lt;br&gt;minval = numbers[0]&lt;br&gt;if numbers[i] &amp;lt; minval:&lt;br&gt;minval = numbers[i]" style="whiteSpace=wrap;html=1;" vertex="1" parent="1"><mxGeometry x="309" y="630" width="232" height="60" as="geometry"/></mxCell><mxCell id="20" value="" style="edgeStyle=none;html=1;" edge="1" parent="1" source="17" target="18"><mxGeometry relative="1" as="geometry"/></mxCell><mxCell id="17" value="after comapring each numbers[i], we add i += 1 so it goes through the list of inputted integers one by one" style="whiteSpace=wrap;html=1;" vertex="1" parent="1"><mxGeometry x="348" y="740" width="155" height="60" as="geometry"/></mxCell><mxCell id="18" value="print the minimum value:&lt;br&gt;print(minval)" style="whiteSpace=wrap;html=1;" vertex="1" parent="1"><mxGeometry x="370" y="840" width="120" height="60" as="geometry"/></mxCell></root></mxGraphModel></diagram></mxfile>